solid TOO BIG FINAL(ish) DRAFT
facet normal 0.0 0.0 1.0
  outer loop
    vertex 1588.3972423086193 2822.153953189625 -1.7723980963860413
    vertex 1150.9597423086193 2831.790203189625 -1.7723980963860413
    vertex 1150.9597423086193 2822.153953189625 -1.7723980963860413
  endloop
endfacet
facet normal 0.0 0.0 1.0
  outer loop
    vertex 1150.9597423086193 2831.790203189625 -1.7723980963860413
    vertex 1588.3972423086193 2822.153953189625 -1.7723980963860413
    vertex 1588.3972423086193 2831.790203189625 -1.7723980963860413
  endloop
endfacet
facet normal 0.0 0.0 -1.0
  outer loop
    vertex 1199.0505828933308 3180.881542911482 -1.7723980963860413
    vertex 1124.5771578933304 3108.3319732114824 -1.7723980963860413
    vertex 1124.5771578933304 3180.881542911482 -1.7723980963860413
  endloop
endfacet
facet normal 0.0 0.0 -1.0
  outer loop
    vertex 1124.5771578933304 3108.3319732114824 -1.7723980963860413
    vertex 1199.0505828933308 3180.881542911482 -1.7723980963860413
    vertex 1199.0505828933308 3108.3319732114824 -1.7723980963860413
  endloop
endfacet
facet normal 0.0 0.0 -1.0
  outer loop
    vertex 652.9485386821094 2835.2897683829297 0.0
    vertex 472.0735386821094 2750.4772683829297 0.0
    vertex 472.0735386821094 2835.2897683829297 0.0
  endloop
endfacet
facet normal 0.0 0.0 -1.0
  outer loop
    vertex 472.0735386821094 2750.4772683829297 0.0
    vertex 652.9485386821094 2835.2897683829297 0.0
    vertex 652.9485386821094 2750.4772683829297 0.0
  endloop
endfacet
facet normal 0.0 0.0 -1.0
  outer loop
    vertex 790.3448294112281 3146.5269262568263 0.0
    vertex 495.05362646437203 2964.0269262568263 0.0
    vertex 495.05362646437203 3146.5269262568263 0.0
  endloop
endfacet
facet normal 0.0 0.0 -1.0
  outer loop
    vertex 495.05362646437203 2964.0269262568263 0.0
    vertex 790.3448294112281 3146.5269262568263 0.0
    vertex 790.3448294112281 2964.0269262568263 0.0
  endloop
endfacet
facet normal 0.0 0.0 -1.0
  outer loop
    vertex 2462.1099657377745 2696.792855299019 0.0
    vertex 2360.7925491463757 2615.526926256827 0.0
    vertex 2360.7925491463757 2696.792855299019 0.0
  endloop
endfacet
facet normal 0.0 0.0 -1.0
  outer loop
    vertex 2360.7925491463757 2615.526926256827 0.0
    vertex 2462.1099657377745 2696.792855299019 0.0
    vertex 2462.1099657377745 2615.526926256827 0.0
  endloop
endfacet
facet normal 0.0 0.0 -1.0
  outer loop
    vertex 1247.4956048347456 3083.544753052122 0.0
    vertex 1239.6322482031333 3022.076630965116 0.0
    vertex 1239.517710621559 3053.3283072786044 0.0
  endloop
endfacet
facet normal 0.0 0.0 -1.0
  outer loop
    vertex 1239.6322482031333 3022.076630965116 0.0
    vertex 1247.4956048347456 3083.544753052122 0.0
    vertex 1247.8314120325674 2991.9194742065815 0.0
  endloop
endfacet
facet normal 0.0 0.0 -1.0
  outer loop
    vertex 1247.8314120325674 2991.9194742065815 0.0
    vertex 1247.4956048347456 3083.544753052122 0.0
    vertex 1263.0222505361585 3110.6667674412392 0.0
  endloop
endfacet
facet normal 0.0 0.0 -1.0
  outer loop
    vertex 1247.8314120325674 2991.9194742065815 0.0
    vertex 1263.0222505361585 3110.6667674412392 0.0
    vertex 1263.5564426446438 2964.9119973990387 0.0
  endloop
endfacet
facet normal 0.0 0.0 -1.0
  outer loop
    vertex 1263.5564426446438 2964.9119973990387 0.0
    vertex 1263.0222505361585 3110.6667674412392 0.0
    vertex 1285.0395324802414 3132.8460299865865 0.0
  endloop
endfacet
facet normal 0.0 0.0 -1.0
  outer loop
    vertex 1263.5564426446438 2964.9119973990387 0.0
    vertex 1285.0395324802414 3132.8460299865865 0.0
    vertex 1285.7357051899912 2942.8947154549555 0.0
  endloop
endfacet
facet normal 0.0 0.0 -1.0
  outer loop
    vertex 1285.7357051899912 2942.8947154549555 0.0
    vertex 1285.0395324802414 3132.8460299865865 0.0
    vertex 1312.0470092877836 3148.571060598663 0.0
  endloop
endfacet
facet normal 0.0 0.0 -1.0
  outer loop
    vertex 1285.7357051899912 2942.8947154549555 0.0
    vertex 1312.0470092877836 3148.571060598663 0.0
    vertex 1312.8577195791088 2927.368069753543 0.0
  endloop
endfacet
facet normal 0.0 0.0 -1.0
  outer loop
    vertex 1312.8577195791088 2927.368069753543 0.0
    vertex 1312.0470092877836 3148.571060598663 0.0
    vertex 1342.2041660463178 3156.7702244280977 0.0
  endloop
endfacet
facet normal 0.0 0.0 -1.0
  outer loop
    vertex 1312.8577195791088 2927.368069753543 0.0
    vertex 1342.2041660463178 3156.7702244280977 0.0
    vertex 1343.0741653526259 2919.390175540356 0.0
  endloop
endfacet
facet normal 0.0 0.0 -1.0
  outer loop
    vertex 1343.0741653526259 2919.390175540356 0.0
    vertex 1342.2041660463178 3156.7702244280977 0.0
    vertex 1373.455842359807 3156.884762009672 0.0
  endloop
endfacet
facet normal 0.0 0.0 -1.0
  outer loop
    vertex 1343.0741653526259 2919.390175540356 0.0
    vertex 1373.455842359807 3156.884762009672 0.0
    vertex 1374.3258416661151 2919.5047131219308 0.0
  endloop
endfacet
facet normal 0.0 0.0 -1.0
  outer loop
    vertex 1374.3258416661151 2919.5047131219308 0.0
    vertex 1373.455842359807 3156.884762009672 0.0
    vertex 1403.6722881333242 3148.9068677964856 0.0
  endloop
endfacet
facet normal 0.0 0.0 -1.0
  outer loop
    vertex 1374.3258416661151 2919.5047131219308 0.0
    vertex 1403.6722881333242 3148.9068677964856 0.0
    vertex 1404.4829984246494 2927.7038769513642 0.0
  endloop
endfacet
facet normal 0.0 0.0 -1.0
  outer loop
    vertex 1404.4829984246494 2927.7038769513642 0.0
    vertex 1403.6722881333242 3148.9068677964856 0.0
    vertex 1430.7943025224417 3133.3802220950724 0.0
  endloop
endfacet
facet normal 0.0 0.0 -1.0
  outer loop
    vertex 1404.4829984246494 2927.7038769513642 0.0
    vertex 1430.7943025224417 3133.3802220950724 0.0
    vertex 1431.4904752321925 2943.428907563441 0.0
  endloop
endfacet
facet normal 0.0 0.0 -1.0
  outer loop
    vertex 1431.4904752321925 2943.428907563441 0.0
    vertex 1430.7943025224417 3133.3802220950724 0.0
    vertex 1452.973565067789 3111.3629401509897 0.0
  endloop
endfacet
facet normal 0.0 0.0 -1.0
  outer loop
    vertex 1431.4904752321925 2943.428907563441 0.0
    vertex 1452.973565067789 3111.3629401509897 0.0
    vertex 1453.5077571762754 2965.6081701087887 0.0
  endloop
endfacet
facet normal 0.0 0.0 -1.0
  outer loop
    vertex 1453.5077571762754 2965.6081701087887 0.0
    vertex 1452.973565067789 3111.3629401509897 0.0
    vertex 1468.6985956798655 3084.3554633434464 0.0
  endloop
endfacet
facet normal 0.0 0.0 -1.0
  outer loop
    vertex 1453.5077571762754 2965.6081701087887 0.0
    vertex 1468.6985956798655 3084.3554633434464 0.0
    vertex 1469.0344028776888 2992.730184497906 0.0
  endloop
endfacet
facet normal 0.0 0.0 -1.0
  outer loop
    vertex 1469.0344028776888 2992.730184497906 0.0
    vertex 1468.6985956798655 3084.3554633434464 0.0
    vertex 1476.8977595093002 3054.1983065849126 0.0
  endloop
endfacet
facet normal 0.0 0.0 -1.0
  outer loop
    vertex 1469.0344028776888 2992.730184497906 0.0
    vertex 1476.8977595093002 3054.1983065849126 0.0
    vertex 1477.0122970908749 3022.946630271423 0.0
  endloop
endfacet
facet normal 0.0 0.0 -1.0
  outer loop
    vertex 2455.7622358602525 3157.8176104037857 0.0
    vertex 2256.7705411159945 2899.3225435543823 0.0
    vertex 2256.7705411159945 3157.8176104037857 0.0
  endloop
endfacet
facet normal 0.0 0.0 -1.0
  outer loop
    vertex 2256.7705411159945 2899.3225435543823 0.0
    vertex 2455.7622358602525 3157.8176104037857 0.0
    vertex 2455.7622358602525 2899.3225435543823 0.0
  endloop
endfacet
facet normal 0.0 0.0 -1.0
  outer loop
    vertex 1644.973666115994 3160.496766466038 0.0
    vertex 1541.5383536159939 3059.733475216038 0.0
    vertex 1541.5383536159939 3160.496766466038 0.0
  endloop
endfacet
facet normal 0.0 0.0 -1.0
  outer loop
    vertex 1541.5383536159939 3059.733475216038 0.0
    vertex 1644.973666115994 3160.496766466038 0.0
    vertex 1644.973666115994 3059.733475216038 0.0
  endloop
endfacet
facet normal 0.0 0.0 -1.0
  outer loop
    vertex 2481.0122940559695 2893.2263409551515 0.0
    vertex 2244.1099657377745 2702.792855299019 0.0
    vertex 2244.1099657377745 2893.2263409551515 0.0
  endloop
endfacet
facet normal 0.0 0.0 -1.0
  outer loop
    vertex 2244.1099657377745 2702.792855299019 0.0
    vertex 2481.0122940559695 2893.2263409551515 0.0
    vertex 2481.0122940559695 2702.792855299019 0.0
  endloop
endfacet
facet normal 0.0 0.0 -1.0
  outer loop
    vertex 931.208350057419 3110.1480910847463 2.2084205068636087
    vertex 1039.02085005742 3064.3980910847463 2.2084205068636087
    vertex 931.2083500574176 3064.398091084745 2.2084205068636087
  endloop
endfacet
facet normal 0.0 0.0 -1.0
  outer loop
    vertex 1039.02085005742 3064.3980910847463 2.2084205068636087
    vertex 931.208350057419 3110.1480910847463 2.2084205068636087
    vertex 1039.020850057419 3110.148091084744 2.2084205068636087
  endloop
endfacet
facet normal 0.0 0.0 -1.0
  outer loop
    vertex 1800.6276282878923 3175.946622016191 -1.1368683772161603e-13
    vertex 1702.672628287892 3063.856622016191 -1.1368683772161603e-13
    vertex 1702.672628287892 3175.946622016191 -1.1368683772161603e-13
  endloop
endfacet
facet normal 0.0 0.0 -1.0
  outer loop
    vertex 1702.672628287892 3063.856622016191 -1.1368683772161603e-13
    vertex 1800.6276282878923 3175.946622016191 -1.1368683772161603e-13
    vertex 1800.6276282878923 3063.856622016191 -1.1368683772161603e-13
  endloop
endfacet
facet normal 0.0 0.0 -1.0
  outer loop
    vertex 1740.6867951297945 2715.593553499788 0.0
    vertex 1654.425358104566 2662.281053499788 0.0
    vertex 1654.425358104566 2715.593553499788 0.0
  endloop
endfacet
facet normal 0.0 0.0 -1.0
  outer loop
    vertex 1654.425358104566 2662.281053499788 0.0
    vertex 1740.6867951297945 2715.593553499788 0.0
    vertex 1740.6867951297945 2662.281053499788 0.0
  endloop
endfacet
facet normal 0.0 0.0 -1.0
  outer loop
    vertex 949.4863475825455 2853.211567528162 0.0
    vertex 875.9043163325459 2783.3002706531624 0.0
    vertex 875.9043163325459 2853.211567528162 0.0
  endloop
endfacet
facet normal 0.0 0.0 -1.0
  outer loop
    vertex 875.9043163325459 2783.3002706531624 0.0
    vertex 949.4863475825455 2853.211567528162 0.0
    vertex 949.4863475825455 2783.3002706531624 0.0
  endloop
endfacet
facet normal 0.0 0.0 -1.0
  outer loop
    vertex 1898.5826282878918 3175.946622016191 -1.1368683772161603e-13
    vertex 1800.6276282878923 3063.856622016191 -1.1368683772161603e-13
    vertex 1800.6276282878923 3175.946622016191 -1.1368683772161603e-13
  endloop
endfacet
facet normal 0.0 0.0 -1.0
  outer loop
    vertex 1800.6276282878923 3063.856622016191 -1.1368683772161603e-13
    vertex 1898.5826282878918 3175.946622016191 -1.1368683772161603e-13
    vertex 1898.5826282878918 3063.856622016191 -1.1368683772161603e-13
  endloop
endfacet
facet normal 0.0 0.0 -1.0
  outer loop
    vertex 1997.7572923548412 3175.946622016191 -1.1368683772161603e-13
    vertex 1899.8022923548413 3063.856622016191 -1.1368683772161603e-13
    vertex 1899.8022923548413 3175.946622016191 -1.1368683772161603e-13
  endloop
endfacet
facet normal 0.0 0.0 -1.0
  outer loop
    vertex 1899.8022923548413 3063.856622016191 -1.1368683772161603e-13
    vertex 1997.7572923548412 3175.946622016191 -1.1368683772161603e-13
    vertex 1997.7572923548412 3063.856622016191 -1.1368683772161603e-13
  endloop
endfacet
facet normal 0.0 0.0 -1.0
  outer loop
    vertex 1799.7257269354086 2980.8560238903856 0.0
    vertex 1701.7707269354082 2868.7660238903854 0.0
    vertex 1701.7707269354082 2980.8560238903856 0.0
  endloop
endfacet
facet normal 0.0 0.0 -1.0
  outer loop
    vertex 1701.7707269354082 2868.7660238903854 0.0
    vertex 1799.7257269354086 2980.8560238903856 0.0
    vertex 1799.7257269354086 2868.7660238903854 0.0
  endloop
endfacet
facet normal 0.0 0.0 -1.0
  outer loop
    vertex 1996.8553910023575 2980.8560238903856 0.0
    vertex 1898.9003910023575 2868.7660238903854 0.0
    vertex 1898.9003910023575 2980.8560238903856 0.0
  endloop
endfacet
facet normal 0.0 0.0 -1.0
  outer loop
    vertex 1898.9003910023575 2868.7660238903854 0.0
    vertex 1996.8553910023575 2980.8560238903856 0.0
    vertex 1996.8553910023575 2868.7660238903854 0.0
  endloop
endfacet
facet normal 0.0 0.0 -1.0
  outer loop
    vertex 1897.680726935408 2980.8560238903856 0.0
    vertex 1799.7257269354086 2868.7660238903854 0.0
    vertex 1799.7257269354086 2980.8560238903856 0.0
  endloop
endfacet
facet normal 0.0 0.0 -1.0
  outer loop
    vertex 1799.7257269354086 2868.7660238903854 0.0
    vertex 1897.680726935408 2980.8560238903856 0.0
    vertex 1897.680726935408 2868.7660238903854 0.0
  endloop
endfacet
facet normal 0.0 0.0 -1.0
  outer loop
    vertex 1898.9003910023575 2980.8560238903856 0.0
    vertex 1899.8022923548413 3063.856622016191 -1.1368683772161603e-13
    vertex 1996.8553910023575 2980.8560238903856 0.0
  endloop
endfacet
facet normal 0.0 0.0 -1.0
  outer loop
    vertex 1899.8022923548413 3063.856622016191 -1.1368683772161603e-13
    vertex 1898.9003910023575 2980.8560238903856 0.0
    vertex 1899.8022923548413 3175.946622016191 -1.1368683772161603e-13
  endloop
endfacet
facet normal 0.0 0.0 -1.0
  outer loop
    vertex 1996.8553910023575 2980.8560238903856 0.0
    vertex 1899.8022923548413 3063.856622016191 -1.1368683772161603e-13
    vertex 1997.7572923548412 3063.856622016191 -1.1368683772161603e-13
  endloop
endfacet
facet normal 0.0 0.0 -1.0
  outer loop
    vertex 1996.8553910023575 2980.8560238903856 0.0
    vertex 1997.7572923548412 3063.856622016191 -1.1368683772161603e-13
    vertex 1996.8553910023575 2868.7660238903854 0.0
  endloop
endfacet
facet normal 0.0 0.0 -1.0
  outer loop
    vertex 1654.425358104566 2715.593553499788 0.0
    vertex 1701.7707269354082 2868.7660238903854 0.0
    vertex 1740.6867951297945 2715.593553499788 0.0
  endloop
endfacet
facet normal 0.0 0.0 -1.0
  outer loop
    vertex 1701.7707269354082 2868.7660238903854 0.0
    vertex 1654.425358104566 2715.593553499788 0.0
    vertex 1701.7707269354082 2980.8560238903856 0.0
  endloop
endfacet
facet normal 0.0 0.0 -1.0
  outer loop
    vertex 1740.6867951297945 2715.593553499788 0.0
    vertex 1701.7707269354082 2868.7660238903854 0.0
    vertex 1799.7257269354086 2868.7660238903854 0.0
  endloop
endfacet
facet normal 0.0 0.0 -1.0
  outer loop
    vertex 1740.6867951297945 2715.593553499788 0.0
    vertex 1799.7257269354086 2868.7660238903854 0.0
    vertex 1740.6867951297945 2662.281053499788 0.0
  endloop
endfacet
facet normal 0.0 0.0 -1.0
  outer loop
    vertex 1701.7707269354082 2980.8560238903856 0.0
    vertex 1702.672628287892 3063.856622016191 -1.1368683772161603e-13
    vertex 1799.7257269354086 2980.8560238903856 0.0
  endloop
endfacet
facet normal 0.0 0.0 -1.0
  outer loop
    vertex 1702.672628287892 3063.856622016191 -1.1368683772161603e-13
    vertex 1701.7707269354082 2980.8560238903856 0.0
    vertex 1702.672628287892 3175.946622016191 -1.1368683772161603e-13
  endloop
endfacet
facet normal 0.0 0.0 -1.0
  outer loop
    vertex 1799.7257269354086 2980.8560238903856 0.0
    vertex 1702.672628287892 3063.856622016191 -1.1368683772161603e-13
    vertex 1800.6276282878923 3063.856622016191 -1.1368683772161603e-13
  endloop
endfacet
facet normal 0.0 0.0 -1.0
  outer loop
    vertex 1799.7257269354086 2980.8560238903856 0.0
    vertex 1800.6276282878923 3063.856622016191 -1.1368683772161603e-13
    vertex 1897.680726935408 2980.8560238903856 0.0
  endloop
endfacet
facet normal 0.0 0.0 -1.0
  outer loop
    vertex 1897.680726935408 2980.8560238903856 0.0
    vertex 1800.6276282878923 3063.856622016191 -1.1368683772161603e-13
    vertex 1898.5826282878918 3063.856622016191 -1.1368683772161603e-13
  endloop
endfacet
facet normal 0.0 0.0 -1.0
  outer loop
    vertex 1897.680726935408 2980.8560238903856 0.0
    vertex 1898.5826282878918 3063.856622016191 -1.1368683772161603e-13
    vertex 1897.680726935408 2868.7660238903854 0.0
  endloop
endfacet
facet normal 0.0 0.0 -1.0
  outer loop
    vertex 2481.0122940559695 2702.792855299019 0.0
    vertex 2360.7925491463757 2696.792855299019 0.0
    vertex 2244.1099657377745 2702.792855299019 0.0
  endloop
endfacet
facet normal 0.0 0.0 -1.0
  outer loop
    vertex 2360.7925491463757 2696.792855299019 0.0
    vertex 2481.0122940559695 2702.792855299019 0.0
    vertex 2462.1099657377745 2696.792855299019 0.0
  endloop
endfacet
facet normal 0.0 0.0 -1.0
  outer loop
    vertex 2462.1099657377745 2696.792855299019 0.0
    vertex 2481.0122940559695 2702.792855299019 0.0
    vertex 2462.1099657377745 2615.526926256827 0.0
  endloop
endfacet
facet normal 0.0 0.0 -1.0
  outer loop
    vertex 453.6360386821091 3188.526926256827 0.0
    vertex 495.05362646437203 3146.5269262568263 0.0
    vertex 453.6360386821091 2603.526926256827 0.0
  endloop
endfacet
facet normal 0.0 0.0 -1.0
  outer loop
    vertex 495.05362646437203 3146.5269262568263 0.0
    vertex 453.6360386821091 3188.526926256827 0.0
    vertex 1092.4285878990836 3170.4069729383295 0.0
  endloop
endfacet
facet normal 0.0 0.0 -1.0
  outer loop
    vertex 1092.4285878990836 3170.4069729383295 0.0
    vertex 453.6360386821091 3188.526926256827 0.0
    vertex 2495.636038682109 3188.526926256827 0.0
  endloop
endfacet
facet normal 0.0 0.0 -1.0
  outer loop
    vertex 453.6360386821091 2603.526926256827 0.0
    vertex 495.05362646437203 3146.5269262568263 0.0
    vertex 472.0735386821094 2835.2897683829297 0.0
  endloop
endfacet
facet normal 0.0 0.0 -1.0
  outer loop
    vertex 495.05362646437203 3146.5269262568263 0.0
    vertex 1092.4285878990836 3170.4069729383295 0.0
    vertex 790.3448294112281 3146.5269262568263 0.0
  endloop
endfacet
facet normal 0.0 0.0 -1.0
  outer loop
    vertex 790.3448294112281 3146.5269262568263 0.0
    vertex 1092.4285878990836 3170.4069729383295 0.0
    vertex 790.3448294112281 2964.0269262568263 0.0
  endloop
endfacet
facet normal 0.0 0.0 -1.0
  outer loop
    vertex 790.3448294112281 2964.0269262568263 0.0
    vertex 1092.4285878990836 3170.4069729383295 0.0
    vertex 863.8330411159947 2852.9671419900924 0.0
  endloop
endfacet
facet normal 0.0 0.0 -1.0
  outer loop
    vertex 863.8330411159947 2852.9671419900924 0.0
    vertex 1092.4285878990836 3170.4069729383295 0.0
    vertex 864.7705411159945 2852.9671419900924 0.0
  endloop
endfacet
facet normal 0.0 0.0 -1.0
  outer loop
    vertex 864.7705411159945 2852.9671419900924 0.0
    vertex 1092.4285878990836 3170.4069729383295 0.0
    vertex 875.9043163325459 2853.211567528162 0.0
  endloop
endfacet
facet normal 0.0 0.0 -1.0
  outer loop
    vertex 864.7705411159945 2852.9671419900924 0.0
    vertex 875.9043163325459 2853.211567528162 0.0
    vertex 864.7705411159945 2794.562488247896 0.0
  endloop
endfacet
facet normal 0.0 0.0 -1.0
  outer loop
    vertex 864.7705411159945 2794.562488247896 0.0
    vertex 875.9043163325459 2853.211567528162 0.0
    vertex 864.7705411159945 2681.6264526528266 0.0
  endloop
endfacet
facet normal 0.0 0.0 -1.0
  outer loop
    vertex 875.9043163325459 2853.211567528162 0.0
    vertex 1092.4285878990836 3170.4069729383295 0.0
    vertex 949.4863475825455 2853.211567528162 0.0
  endloop
endfacet
facet normal 0.0 0.0 -1.0
  outer loop
    vertex 949.4863475825455 2853.211567528162 0.0
    vertex 1092.4285878990836 3170.4069729383295 0.0
    vertex 949.4863475825455 2783.3002706531624 0.0
  endloop
endfacet
facet normal 0.0 0.0 -1.0
  outer loop
    vertex 1092.4285878990836 3170.4069729383295 0.0
    vertex 2495.636038682109 3188.526926256827 0.0
    vertex 1184.9910878990836 3170.4069729383295 0.0
  endloop
endfacet
facet normal 0.0 0.0 -1.0
  outer loop
    vertex 1184.9910878990836 3170.4069729383295 0.0
    vertex 2495.636038682109 3188.526926256827 0.0
    vertex 1702.672628287892 3175.946622016191 -1.1368683772161603e-13
  endloop
endfacet
facet normal 0.0 0.0 -1.0
  outer loop
    vertex 1184.9910878990836 3170.4069729383295 0.0
    vertex 1702.672628287892 3175.946622016191 -1.1368683772161603e-13
    vertex 1342.2041660463178 3156.7702244280977 0.0
  endloop
endfacet
facet normal 0.0 0.0 -1.0
  outer loop
    vertex 1184.9910878990836 3170.4069729383295 0.0
    vertex 1342.2041660463178 3156.7702244280977 0.0
    vertex 1312.0470092877836 3148.571060598663 0.0
  endloop
endfacet
facet normal 0.0 0.0 -1.0
  outer loop
    vertex 1184.9910878990836 3170.4069729383295 0.0
    vertex 1312.0470092877836 3148.571060598663 0.0
    vertex 1184.9910878990836 3093.0944729383295 0.0
  endloop
endfacet
facet normal 0.0 0.0 -1.0
  outer loop
    vertex 1184.9910878990836 3093.0944729383295 0.0
    vertex 1312.0470092877836 3148.571060598663 0.0
    vertex 1285.0395324802414 3132.8460299865865 0.0
  endloop
endfacet
facet normal 0.0 0.0 -1.0
  outer loop
    vertex 1184.9910878990836 3093.0944729383295 0.0
    vertex 1285.0395324802414 3132.8460299865865 0.0
    vertex 1263.0222505361585 3110.6667674412392 0.0
  endloop
endfacet
facet normal 0.0 0.0 -1.0
  outer loop
    vertex 1184.9910878990836 3093.0944729383295 0.0
    vertex 1263.0222505361585 3110.6667674412392 0.0
    vertex 1247.4956048347456 3083.544753052122 0.0
  endloop
endfacet
facet normal 0.0 0.0 -1.0
  outer loop
    vertex 1184.9910878990836 3093.0944729383295 0.0
    vertex 1247.4956048347456 3083.544753052122 0.0
    vertex 1239.517710621559 3053.3283072786044 0.0
  endloop
endfacet
facet normal 0.0 0.0 -1.0
  outer loop
    vertex 1342.2041660463178 3156.7702244280977 0.0
    vertex 1702.672628287892 3175.946622016191 -1.1368683772161603e-13
    vertex 1373.455842359807 3156.884762009672 0.0
  endloop
endfacet
facet normal 0.0 0.0 -1.0
  outer loop
    vertex 1373.455842359807 3156.884762009672 0.0
    vertex 1702.672628287892 3175.946622016191 -1.1368683772161603e-13
    vertex 1403.6722881333242 3148.9068677964856 0.0
  endloop
endfacet
facet normal 0.0 0.0 -1.0
  outer loop
    vertex 1403.6722881333242 3148.9068677964856 0.0
    vertex 1702.672628287892 3175.946622016191 -1.1368683772161603e-13
    vertex 1541.5383536159939 3160.496766466038 0.0
  endloop
endfacet
facet normal 0.0 0.0 -1.0
  outer loop
    vertex 1403.6722881333242 3148.9068677964856 0.0
    vertex 1541.5383536159939 3160.496766466038 0.0
    vertex 1430.7943025224417 3133.3802220950724 0.0
  endloop
endfacet
facet normal 0.0 0.0 -1.0
  outer loop
    vertex 1430.7943025224417 3133.3802220950724 0.0
    vertex 1541.5383536159939 3160.496766466038 0.0
    vertex 1452.973565067789 3111.3629401509897 0.0
  endloop
endfacet
facet normal 0.0 0.0 -1.0
  outer loop
    vertex 1452.973565067789 3111.3629401509897 0.0
    vertex 1541.5383536159939 3160.496766466038 0.0
    vertex 1468.6985956798655 3084.3554633434464 0.0
  endloop
endfacet
facet normal 0.0 0.0 -1.0
  outer loop
    vertex 1468.6985956798655 3084.3554633434464 0.0
    vertex 1541.5383536159939 3160.496766466038 0.0
    vertex 1476.8977595093002 3054.1983065849126 0.0
  endloop
endfacet
facet normal 0.0 0.0 -1.0
  outer loop
    vertex 1476.8977595093002 3054.1983065849126 0.0
    vertex 1541.5383536159939 3160.496766466038 0.0
    vertex 1477.0122970908749 3022.946630271423 0.0
  endloop
endfacet
facet normal 0.0 0.0 -1.0
  outer loop
    vertex 1541.5383536159939 3160.496766466038 0.0
    vertex 1702.672628287892 3175.946622016191 -1.1368683772161603e-13
    vertex 1644.973666115994 3160.496766466038 0.0
  endloop
endfacet
facet normal 0.0 0.0 -1.0
  outer loop
    vertex 1644.973666115994 3160.496766466038 0.0
    vertex 1702.672628287892 3175.946622016191 -1.1368683772161603e-13
    vertex 1644.973666115994 3059.733475216038 0.0
  endloop
endfacet
facet normal 0.0 0.0 -1.0
  outer loop
    vertex 1644.973666115994 3059.733475216038 0.0
    vertex 1702.672628287892 3175.946622016191 -1.1368683772161603e-13
    vertex 1654.425358104566 2715.593553499788 0.0
  endloop
endfacet
facet normal 0.0 0.0 -1.0
  outer loop
    vertex 1654.425358104566 2715.593553499788 0.0
    vertex 1702.672628287892 3175.946622016191 -1.1368683772161603e-13
    vertex 1701.7707269354082 2980.8560238903856 0.0
  endloop
endfacet
facet normal 0.0 0.0 -1.0
  outer loop
    vertex 1702.672628287892 3175.946622016191 -1.1368683772161603e-13
    vertex 2495.636038682109 3188.526926256827 0.0
    vertex 1800.6276282878923 3175.946622016191 -1.1368683772161603e-13
  endloop
endfacet
facet normal 0.0 0.0 -1.0
  outer loop
    vertex 1800.6276282878923 3175.946622016191 -1.1368683772161603e-13
    vertex 2495.636038682109 3188.526926256827 0.0
    vertex 1898.5826282878918 3175.946622016191 -1.1368683772161603e-13
  endloop
endfacet
facet normal 0.0 0.0 -1.0
  outer loop
    vertex 1898.5826282878918 3175.946622016191 -1.1368683772161603e-13
    vertex 2495.636038682109 3188.526926256827 0.0
    vertex 1899.8022923548413 3175.946622016191 -1.1368683772161603e-13
  endloop
endfacet
facet normal 0.0 0.0 -1.0
  outer loop
    vertex 1898.5826282878918 3175.946622016191 -1.1368683772161603e-13
    vertex 1899.8022923548413 3175.946622016191 -1.1368683772161603e-13
    vertex 1898.5826282878918 3063.856622016191 -1.1368683772161603e-13
  endloop
endfacet
facet normal 0.0 0.0 -1.0
  outer loop
    vertex 1898.5826282878918 3063.856622016191 -1.1368683772161603e-13
    vertex 1899.8022923548413 3175.946622016191 -1.1368683772161603e-13
    vertex 1898.9003910023575 2980.8560238903856 0.0
  endloop
endfacet
facet normal 0.0 0.0 -1.0
  outer loop
    vertex 1899.8022923548413 3175.946622016191 -1.1368683772161603e-13
    vertex 2495.636038682109 3188.526926256827 0.0
    vertex 1997.7572923548412 3175.946622016191 -1.1368683772161603e-13
  endloop
endfacet
facet normal 0.0 0.0 -1.0
  outer loop
    vertex 1997.7572923548412 3175.946622016191 -1.1368683772161603e-13
    vertex 2495.636038682109 3188.526926256827 0.0
    vertex 2256.7705411159945 3157.8176104037857 0.0
  endloop
endfacet
facet normal 0.0 0.0 -1.0
  outer loop
    vertex 1997.7572923548412 3175.946622016191 -1.1368683772161603e-13
    vertex 2256.7705411159945 3157.8176104037857 0.0
    vertex 1997.7572923548412 3063.856622016191 -1.1368683772161603e-13
  endloop
endfacet
facet normal 0.0 0.0 -1.0
  outer loop
    vertex 1997.7572923548412 3063.856622016191 -1.1368683772161603e-13
    vertex 2256.7705411159945 3157.8176104037857 0.0
    vertex 2244.1099657377745 2893.2263409551515 0.0
  endloop
endfacet
facet normal 0.0 0.0 -1.0
  outer loop
    vertex 2256.7705411159945 3157.8176104037857 0.0
    vertex 2495.636038682109 3188.526926256827 0.0
    vertex 2455.7622358602525 3157.8176104037857 0.0
  endloop
endfacet
facet normal 0.0 0.0 -1.0
  outer loop
    vertex 2455.7622358602525 3157.8176104037857 0.0
    vertex 2495.636038682109 3188.526926256827 0.0
    vertex 2455.7622358602525 2899.3225435543823 0.0
  endloop
endfacet
facet normal 0.0 0.0 -1.0
  outer loop
    vertex 2455.7622358602525 2899.3225435543823 0.0
    vertex 2495.636038682109 3188.526926256827 0.0
    vertex 2481.0122940559695 2893.2263409551515 0.0
  endloop
endfacet
facet normal 0.0 0.0 -1.0
  outer loop
    vertex 2481.0122940559695 2893.2263409551515 0.0
    vertex 2495.636038682109 3188.526926256827 0.0
    vertex 2481.0122940559695 2702.792855299019 0.0
  endloop
endfacet
facet normal 0.0 0.0 -1.0
  outer loop
    vertex 453.6360386821091 2603.526926256827 0.0
    vertex 722.4271764013779 2681.6264526528266 0.0
    vertex 2495.636038682109 2603.526926256827 0.0
  endloop
endfacet
facet normal 0.0 0.0 -1.0
  outer loop
    vertex 722.4271764013779 2681.6264526528266 0.0
    vertex 453.6360386821091 2603.526926256827 0.0
    vertex 472.0735386821094 2750.4772683829297 0.0
  endloop
endfacet
facet normal 0.0 0.0 -1.0
  outer loop
    vertex 472.0735386821094 2750.4772683829297 0.0
    vertex 453.6360386821091 2603.526926256827 0.0
    vertex 472.0735386821094 2835.2897683829297 0.0
  endloop
endfacet
facet normal 0.0 0.0 -1.0
  outer loop
    vertex 722.4271764013779 2681.6264526528266 0.0
    vertex 472.0735386821094 2750.4772683829297 0.0
    vertex 652.9485386821094 2750.4772683829297 0.0
  endloop
endfacet
facet normal 0.0 0.0 -1.0
  outer loop
    vertex 722.4271764013779 2681.6264526528266 0.0
    vertex 652.9485386821094 2750.4772683829297 0.0
    vertex 722.4271764013779 2852.9671419900924 0.0
  endloop
endfacet
facet normal 0.0 0.0 -1.0
  outer loop
    vertex 2495.636038682109 2603.526926256827 0.0
    vertex 722.4271764013779 2681.6264526528266 0.0
    vertex 864.7705411159945 2681.6264526528266 0.0
  endloop
endfacet
facet normal 0.0 0.0 -1.0
  outer loop
    vertex 2495.636038682109 2603.526926256827 0.0
    vertex 864.7705411159945 2681.6264526528266 0.0
    vertex 1654.425358104566 2662.281053499788 0.0
  endloop
endfacet
facet normal 0.0 0.0 -1.0
  outer loop
    vertex 1654.425358104566 2662.281053499788 0.0
    vertex 864.7705411159945 2681.6264526528266 0.0
    vertex 875.9043163325459 2783.3002706531624 0.0
  endloop
endfacet
facet normal 0.0 0.0 -1.0
  outer loop
    vertex 875.9043163325459 2783.3002706531624 0.0
    vertex 864.7705411159945 2681.6264526528266 0.0
    vertex 875.9043163325459 2853.211567528162 0.0
  endloop
endfacet
facet normal 0.0 0.0 -1.0
  outer loop
    vertex 1654.425358104566 2662.281053499788 0.0
    vertex 875.9043163325459 2783.3002706531624 0.0
    vertex 949.4863475825455 2783.3002706531624 0.0
  endloop
endfacet
facet normal 0.0 0.0 -1.0
  outer loop
    vertex 1654.425358104566 2662.281053499788 0.0
    vertex 949.4863475825455 2783.3002706531624 0.0
    vertex 1285.7357051899912 2942.8947154549555 0.0
  endloop
endfacet
facet normal 0.0 0.0 -1.0
  outer loop
    vertex 1285.7357051899912 2942.8947154549555 0.0
    vertex 949.4863475825455 2783.3002706531624 0.0
    vertex 1092.4285878990836 3093.0944729383295 0.0
  endloop
endfacet
facet normal 0.0 0.0 -1.0
  outer loop
    vertex 1092.4285878990836 3093.0944729383295 0.0
    vertex 949.4863475825455 2783.3002706531624 0.0
    vertex 1092.4285878990836 3170.4069729383295 0.0
  endloop
endfacet
facet normal 0.0 0.0 -1.0
  outer loop
    vertex 1285.7357051899912 2942.8947154549555 0.0
    vertex 1092.4285878990836 3093.0944729383295 0.0
    vertex 1263.5564426446438 2964.9119973990387 0.0
  endloop
endfacet
facet normal 0.0 0.0 -1.0
  outer loop
    vertex 1263.5564426446438 2964.9119973990387 0.0
    vertex 1092.4285878990836 3093.0944729383295 0.0
    vertex 1184.9910878990836 3093.0944729383295 0.0
  endloop
endfacet
facet normal 0.0 0.0 -1.0
  outer loop
    vertex 1263.5564426446438 2964.9119973990387 0.0
    vertex 1184.9910878990836 3093.0944729383295 0.0
    vertex 1247.8314120325674 2991.9194742065815 0.0
  endloop
endfacet
facet normal 0.0 0.0 -1.0
  outer loop
    vertex 1247.8314120325674 2991.9194742065815 0.0
    vertex 1184.9910878990836 3093.0944729383295 0.0
    vertex 1239.6322482031333 3022.076630965116 0.0
  endloop
endfacet
facet normal 0.0 0.0 -1.0
  outer loop
    vertex 1239.6322482031333 3022.076630965116 0.0
    vertex 1184.9910878990836 3093.0944729383295 0.0
    vertex 1239.517710621559 3053.3283072786044 0.0
  endloop
endfacet
facet normal 0.0 0.0 -1.0
  outer loop
    vertex 1654.425358104566 2662.281053499788 0.0
    vertex 1285.7357051899912 2942.8947154549555 0.0
    vertex 1312.8577195791088 2927.368069753543 0.0
  endloop
endfacet
facet normal 0.0 0.0 -1.0
  outer loop
    vertex 1654.425358104566 2662.281053499788 0.0
    vertex 1312.8577195791088 2927.368069753543 0.0
    vertex 1343.0741653526259 2919.390175540356 0.0
  endloop
endfacet
facet normal 0.0 0.0 -1.0
  outer loop
    vertex 1654.425358104566 2662.281053499788 0.0
    vertex 1343.0741653526259 2919.390175540356 0.0
    vertex 1374.3258416661151 2919.5047131219308 0.0
  endloop
endfacet
facet normal 0.0 0.0 -1.0
  outer loop
    vertex 1654.425358104566 2662.281053499788 0.0
    vertex 1374.3258416661151 2919.5047131219308 0.0
    vertex 1404.4829984246494 2927.7038769513642 0.0
  endloop
endfacet
facet normal 0.0 0.0 -1.0
  outer loop
    vertex 1654.425358104566 2662.281053499788 0.0
    vertex 1404.4829984246494 2927.7038769513642 0.0
    vertex 1431.4904752321925 2943.428907563441 0.0
  endloop
endfacet
facet normal 0.0 0.0 -1.0
  outer loop
    vertex 1654.425358104566 2662.281053499788 0.0
    vertex 1431.4904752321925 2943.428907563441 0.0
    vertex 1453.5077571762754 2965.6081701087887 0.0
  endloop
endfacet
facet normal 0.0 0.0 -1.0
  outer loop
    vertex 1654.425358104566 2662.281053499788 0.0
    vertex 1453.5077571762754 2965.6081701087887 0.0
    vertex 1469.0344028776888 2992.730184497906 0.0
  endloop
endfacet
facet normal 0.0 0.0 -1.0
  outer loop
    vertex 1654.425358104566 2662.281053499788 0.0
    vertex 1469.0344028776888 2992.730184497906 0.0
    vertex 1477.0122970908749 3022.946630271423 0.0
  endloop
endfacet
facet normal 0.0 0.0 -1.0
  outer loop
    vertex 1654.425358104566 2662.281053499788 0.0
    vertex 1477.0122970908749 3022.946630271423 0.0
    vertex 1541.5383536159939 3059.733475216038 0.0
  endloop
endfacet
facet normal 0.0 0.0 -1.0
  outer loop
    vertex 1541.5383536159939 3059.733475216038 0.0
    vertex 1477.0122970908749 3022.946630271423 0.0
    vertex 1541.5383536159939 3160.496766466038 0.0
  endloop
endfacet
facet normal 0.0 0.0 -1.0
  outer loop
    vertex 1654.425358104566 2662.281053499788 0.0
    vertex 1541.5383536159939 3059.733475216038 0.0
    vertex 1644.973666115994 3059.733475216038 0.0
  endloop
endfacet
facet normal 0.0 0.0 -1.0
  outer loop
    vertex 1654.425358104566 2662.281053499788 0.0
    vertex 1644.973666115994 3059.733475216038 0.0
    vertex 1654.425358104566 2715.593553499788 0.0
  endloop
endfacet
facet normal 0.0 0.0 -1.0
  outer loop
    vertex 2495.636038682109 2603.526926256827 0.0
    vertex 1654.425358104566 2662.281053499788 0.0
    vertex 1740.6867951297945 2662.281053499788 0.0
  endloop
endfacet
facet normal 0.0 0.0 -1.0
  outer loop
    vertex 2495.636038682109 2603.526926256827 0.0
    vertex 1740.6867951297945 2662.281053499788 0.0
    vertex 2360.7925491463757 2615.526926256827 0.0
  endloop
endfacet
facet normal 0.0 0.0 -1.0
  outer loop
    vertex 2360.7925491463757 2615.526926256827 0.0
    vertex 1740.6867951297945 2662.281053499788 0.0
    vertex 1799.7257269354086 2868.7660238903854 0.0
  endloop
endfacet
facet normal 0.0 0.0 -1.0
  outer loop
    vertex 2360.7925491463757 2615.526926256827 0.0
    vertex 1799.7257269354086 2868.7660238903854 0.0
    vertex 1897.680726935408 2868.7660238903854 0.0
  endloop
endfacet
facet normal 0.0 0.0 -1.0
  outer loop
    vertex 2360.7925491463757 2615.526926256827 0.0
    vertex 1897.680726935408 2868.7660238903854 0.0
    vertex 1898.9003910023575 2868.7660238903854 0.0
  endloop
endfacet
facet normal 0.0 0.0 -1.0
  outer loop
    vertex 1898.9003910023575 2868.7660238903854 0.0
    vertex 1897.680726935408 2868.7660238903854 0.0
    vertex 1898.5826282878918 3063.856622016191 -1.1368683772161603e-13
  endloop
endfacet
facet normal 0.0 0.0 -1.0
  outer loop
    vertex 1898.9003910023575 2868.7660238903854 0.0
    vertex 1898.5826282878918 3063.856622016191 -1.1368683772161603e-13
    vertex 1898.9003910023575 2980.8560238903856 0.0
  endloop
endfacet
facet normal 0.0 0.0 -1.0
  outer loop
    vertex 2360.7925491463757 2615.526926256827 0.0
    vertex 1898.9003910023575 2868.7660238903854 0.0
    vertex 1996.8553910023575 2868.7660238903854 0.0
  endloop
endfacet
facet normal 0.0 0.0 -1.0
  outer loop
    vertex 2360.7925491463757 2615.526926256827 0.0
    vertex 1996.8553910023575 2868.7660238903854 0.0
    vertex 2244.1099657377745 2702.792855299019 0.0
  endloop
endfacet
facet normal 0.0 0.0 -1.0
  outer loop
    vertex 2244.1099657377745 2702.792855299019 0.0
    vertex 1996.8553910023575 2868.7660238903854 0.0
    vertex 1997.7572923548412 3063.856622016191 -1.1368683772161603e-13
  endloop
endfacet
facet normal 0.0 0.0 -1.0
  outer loop
    vertex 2244.1099657377745 2702.792855299019 0.0
    vertex 1997.7572923548412 3063.856622016191 -1.1368683772161603e-13
    vertex 2244.1099657377745 2893.2263409551515 0.0
  endloop
endfacet
facet normal 0.0 0.0 -1.0
  outer loop
    vertex 2360.7925491463757 2615.526926256827 0.0
    vertex 2244.1099657377745 2702.792855299019 0.0
    vertex 2360.7925491463757 2696.792855299019 0.0
  endloop
endfacet
facet normal 0.0 0.0 -1.0
  outer loop
    vertex 2495.636038682109 2603.526926256827 0.0
    vertex 2360.7925491463757 2615.526926256827 0.0
    vertex 2462.1099657377745 2615.526926256827 0.0
  endloop
endfacet
facet normal 0.0 0.0 -1.0
  outer loop
    vertex 2495.636038682109 2603.526926256827 0.0
    vertex 2462.1099657377745 2615.526926256827 0.0
    vertex 2481.0122940559695 2702.792855299019 0.0
  endloop
endfacet
facet normal 0.0 0.0 -1.0
  outer loop
    vertex 2495.636038682109 2603.526926256827 0.0
    vertex 2481.0122940559695 2702.792855299019 0.0
    vertex 2495.636038682109 3188.526926256827 0.0
  endloop
endfacet
facet normal 0.0 0.0 -1.0
  outer loop
    vertex 2244.1099657377745 2893.2263409551515 0.0
    vertex 2256.7705411159945 2899.3225435543823 0.0
    vertex 2481.0122940559695 2893.2263409551515 0.0
  endloop
endfacet
facet normal 0.0 0.0 -1.0
  outer loop
    vertex 2256.7705411159945 2899.3225435543823 0.0
    vertex 2244.1099657377745 2893.2263409551515 0.0
    vertex 2256.7705411159945 3157.8176104037857 0.0
  endloop
endfacet
facet normal 0.0 0.0 -1.0
  outer loop
    vertex 2481.0122940559695 2893.2263409551515 0.0
    vertex 2256.7705411159945 2899.3225435543823 0.0
    vertex 2455.7622358602525 2899.3225435543823 0.0
  endloop
endfacet
facet normal 0.0 0.0 -1.0
  outer loop
    vertex 472.0735386821094 2835.2897683829297 0.0
    vertex 495.05362646437203 2964.0269262568263 0.0
    vertex 652.9485386821094 2835.2897683829297 0.0
  endloop
endfacet
facet normal 0.0 0.0 -1.0
  outer loop
    vertex 495.05362646437203 2964.0269262568263 0.0
    vertex 472.0735386821094 2835.2897683829297 0.0
    vertex 495.05362646437203 3146.5269262568263 0.0
  endloop
endfacet
facet normal 0.0 0.0 -1.0
  outer loop
    vertex 652.9485386821094 2835.2897683829297 0.0
    vertex 495.05362646437203 2964.0269262568263 0.0
    vertex 790.3448294112281 2964.0269262568263 0.0
  endloop
endfacet
facet normal 0.0 0.0 -1.0
  outer loop
    vertex 652.9485386821094 2835.2897683829297 0.0
    vertex 790.3448294112281 2964.0269262568263 0.0
    vertex 652.9485386821094 2750.4772683829297 0.0
  endloop
endfacet
facet normal 0.0 0.0 -1.0
  outer loop
    vertex 652.9485386821094 2750.4772683829297 0.0
    vertex 790.3448294112281 2964.0269262568263 0.0
    vertex 722.4271764013779 2852.9671419900924 0.0
  endloop
endfacet
facet normal 0.0 0.0 -1.0
  outer loop
    vertex 722.4271764013779 2852.9671419900924 0.0
    vertex 790.3448294112281 2964.0269262568263 0.0
    vertex 863.8330411159947 2852.9671419900924 0.0
  endloop
endfacet
facet normal 0.0 0.0 -1.0
  outer loop
    vertex 864.7705411159945 2852.9671419900924 0.0
    vertex 863.8330411159947 2799.8421419900924 0.0
    vertex 863.8330411159947 2852.9671419900924 0.0
  endloop
endfacet
facet normal 0.0 0.0 -1.0
  outer loop
    vertex 863.8330411159947 2799.8421419900924 0.0
    vertex 864.7705411159945 2852.9671419900924 0.0
    vertex 864.7705411159945 2794.562488247896 0.0
  endloop
endfacet
facet normal 0.0 0.0 -1.0
  outer loop
    vertex 863.8330411159947 2852.9671419900924 0.0
    vertex 722.4271764013779 2681.6264526528266 0.0
    vertex 722.4271764013779 2852.9671419900924 0.0
  endloop
endfacet
facet normal 0.0 0.0 -1.0
  outer loop
    vertex 722.4271764013779 2681.6264526528266 0.0
    vertex 863.8330411159947 2852.9671419900924 0.0
    vertex 863.8330411159947 2799.8421419900924 0.0
  endloop
endfacet
facet normal 0.0 0.0 -1.0
  outer loop
    vertex 722.4271764013779 2681.6264526528266 0.0
    vertex 863.8330411159947 2799.8421419900924 0.0
    vertex 864.7705411159945 2681.6264526528266 0.0
  endloop
endfacet
facet normal 0.0 0.0 -1.0
  outer loop
    vertex 864.7705411159945 2681.6264526528266 0.0
    vertex 863.8330411159947 2799.8421419900924 0.0
    vertex 864.7705411159945 2794.562488247896 0.0
  endloop
endfacet
facet normal 0.0 0.0 -1.0
  outer loop
    vertex 1184.9910878990836 3170.4069729383295 0.0
    vertex 1092.4285878990836 3093.0944729383295 0.0
    vertex 1092.4285878990836 3170.4069729383295 0.0
  endloop
endfacet
facet normal 0.0 0.0 -1.0
  outer loop
    vertex 1092.4285878990836 3093.0944729383295 0.0
    vertex 1184.9910878990836 3170.4069729383295 0.0
    vertex 1184.9910878990836 3093.0944729383295 0.0
  endloop
endfacet
endsolid TOO BIG FINAL(ish) DRAFT
